<?xml version="1.0" standalone="no"?>
<!DOCTYPE svg PUBLIC "-//W3C//DTD SVG 20010904//EN"
 "http://www.w3.org/TR/2001/REC-SVG-20010904/DTD/svg10.dtd">
<svg version="1.0" xmlns="http://www.w3.org/2000/svg"
 width="460.000000pt" height="460.000000pt" viewBox="0 0 460.000000 460.000000"
 preserveAspectRatio="xMidYMid meet">
<metadata>
Created by potrace 1.11, written by Peter Selinger 2001-2013
</metadata>
<g transform="translate(0.000000,460.000000) scale(0.100000,-0.100000)"
fill="#000000" stroke="none">
<path d="M2372 3974 c-21 -15 -22 -21 -22 -194 0 -149 3 -181 16 -194 21 -22
61 -20 74 3 6 12 10 93 10 195 0 169 -1 175 -22 190 -12 9 -25 16 -28 16 -3 0
-16 -7 -28 -16z"/>
<path d="M1742 3848 c-19 -19 -14 -51 20 -138 24 -61 38 -84 56 -91 28 -11 58
3 67 30 6 20 -51 160 -79 192 -18 22 -46 25 -64 7z"/>
<path d="M2998 3848 c-20 -16 -78 -154 -78 -185 0 -29 36 -54 64 -44 15 6 32
36 59 101 35 87 37 94 22 116 -17 26 -43 31 -67 12z"/>
<path d="M3474 3438 c-77 -74 -89 -102 -58 -133 10 -10 24 -13 38 -10 28 9
156 138 156 159 0 18 -34 56 -51 56 -6 0 -44 -32 -85 -72z"/>
<path d="M1200 3479 c-14 -26 2 -53 80 -131 62 -63 79 -69 111 -37 29 29 18
54 -57 127 -71 68 -113 81 -134 41z"/>
<path d="M1736 3154 c-33 -32 -23 -52 125 -239 206 -260 369 -482 365 -495 -3
-8 -13 -37 -22 -63 -14 -41 -15 -56 -5 -101 27 -122 142 -189 265 -155 44 12
122 85 132 123 l6 26 325 0 c204 0 331 4 344 10 26 14 26 66 0 80 -13 6 -140
10 -344 10 l-325 0 -6 26 c-11 40 -88 111 -137 124 -38 11 -60 10 -130 -2 -11
-2 -94 98 -248 297 -313 406 -306 398 -345 359z m716 -774 c7 -11 18 -20 25
-20 6 0 15 -10 18 -22 6 -16 -1 -29 -28 -55 -35 -32 -59 -39 -92 -27 -13 6
-14 9 -3 16 9 7 7 8 -9 5 -12 -3 -27 1 -34 9 -6 8 -8 14 -3 14 5 0 0 8 -11 16
-20 15 -19 16 17 50 45 41 100 47 120 14z"/>
<path d="M2380 2375 c-11 -13 -15 -13 -21 -3 -7 10 -9 9 -9 -4 0 -9 6 -18 12
-20 9 -3 7 -13 -6 -34 -10 -16 -13 -23 -5 -16 14 13 33 17 26 5 -3 -5 4 -16
14 -27 18 -18 18 -18 13 20 -4 29 -3 35 5 24 6 -8 11 -10 11 -4 0 6 -7 17 -15
24 -18 15 -19 37 -2 43 7 4 8 6 1 6 -6 1 -17 -6 -24 -14z"/>
<path d="M2413 2365 c-9 -24 1 -27 20 -5 14 17 15 20 2 20 -9 0 -18 -7 -22
-15z"/>
<path d="M2435 2340 c-3 -5 -1 -10 4 -10 6 0 11 5 11 10 0 6 -2 10 -4 10 -3 0
-8 -4 -11 -10z"/>
<path d="M2470 2323 c0 -21 3 -24 9 -14 5 8 7 20 4 28 -8 21 -13 15 -13 -14z"/>
<path d="M2320 2330 c0 -5 5 -10 10 -10 6 0 10 5 10 10 0 6 -4 10 -10 10 -5 0
-10 -4 -10 -10z"/>
<path d="M2440 2301 c-7 -15 -7 -21 0 -21 12 0 25 28 17 36 -3 3 -10 -4 -17
-15z"/>
<path d="M852 2958 c-16 -16 -15 -53 1 -66 22 -18 158 -72 181 -72 28 0 46 18
46 46 0 28 -13 38 -100 74 -79 32 -109 37 -128 18z"/>
<path d="M3815 2938 c-85 -37 -95 -44 -95 -72 0 -54 38 -58 140 -16 87 36 100
46 100 74 0 54 -44 58 -145 14z"/>
<path d="M2372 2864 c-19 -13 -22 -24 -22 -89 0 -78 13 -105 50 -105 37 0 50
27 50 104 0 58 -4 76 -18 89 -23 21 -32 21 -60 1z"/>
<path d="M724 2325 c-15 -23 -15 -27 0 -50 l16 -25 180 0 c149 0 181 3 194 16
21 21 20 47 -2 67 -16 15 -45 17 -195 17 l-177 0 -16 -25z"/>
<path d="M1840 2330 c-24 -24 -24 -29 -4 -58 13 -19 24 -22 89 -22 77 0 105
13 105 49 0 35 -32 51 -103 51 -54 0 -71 -4 -87 -20z"/>
<path d="M3687 2332 c-21 -23 -22 -46 -1 -66 13 -13 45 -16 193 -16 160 0 180
2 194 18 22 24 21 38 -3 62 -18 18 -33 20 -193 20 -156 0 -176 -2 -190 -18z"/>
<path d="M2367 1912 c-25 -27 -24 -153 1 -175 24 -22 45 -21 65 1 25 27 24
153 -1 175 -24 22 -45 21 -65 -1z"/>
<path d="M940 1747 c-41 -18 -81 -36 -87 -40 -20 -12 -15 -52 7 -72 20 -18 23
-17 117 21 104 43 124 64 97 103 -20 28 -45 26 -134 -12z"/>
<path d="M3732 1768 c-17 -17 -15 -53 6 -70 30 -25 172 -79 193 -73 22 7 36
52 23 72 -11 17 -161 83 -189 83 -12 0 -26 -5 -33 -12z"/>
<path d="M1262 1227 c-39 -40 -72 -78 -72 -85 0 -17 37 -52 56 -52 17 0 139
113 156 143 7 13 5 25 -7 43 -26 41 -54 31 -133 -49z"/>
<path d="M3412 1288 c-26 -26 -12 -58 56 -128 42 -43 76 -70 90 -70 20 0 52
34 52 56 0 6 -33 43 -72 82 -72 71 -101 85 -126 60z"/>
<path d="M2372 1014 c-21 -15 -22 -21 -22 -193 0 -160 2 -180 18 -194 23 -21
46 -22 66 -1 13 13 16 45 16 194 0 173 -1 179 -22 194 -12 9 -25 16 -28 16 -3
0 -16 -7 -28 -16z"/>
<path d="M1794 955 c-9 -13 -28 -57 -44 -96 -23 -59 -26 -77 -17 -96 8 -19 17
-23 41 -21 27 3 35 11 64 73 40 81 50 129 32 150 -19 23 -57 18 -76 -10z"/>
<path d="M2932 968 c-19 -19 -14 -50 19 -129 39 -92 45 -99 80 -99 21 0 32 7
40 23 9 19 5 38 -22 103 -18 43 -39 87 -47 97 -17 20 -53 22 -70 5z"/>
</g>
</svg>
